<?xml version="1.0" encoding="iso-8859-1"?>
<!-- Generator: Adobe Illustrator 18.0.0, SVG Export Plug-In . SVG Version: 6.00 Build 0)  -->
<!DOCTYPE svg PUBLIC "-//W3C//DTD SVG 1.1//EN" "http://www.w3.org/Graphics/SVG/1.1/DTD/svg11.dtd">
<svg version="1.1" id="Capa_1" xmlns="http://www.w3.org/2000/svg" xmlns:xlink="http://www.w3.org/1999/xlink" x="0px" y="0px"
	 viewBox="0 0 466.233 466.233" style="enable-background:new 0 0 466.233 466.233;" xml:space="preserve">
<g>
	<path d="M380.018,95.738c-5.707-5.085-13.737-8.948-22.61-10.877c-0.495-0.108-0.987-0.182-1.481-0.276
		c0.35-0.366,0.699-0.735,1.042-1.113c14.228-15.653,17.115-34.583,6.718-44.034c-5.478-4.979-13.666-6.168-22.467-3.261
		c-7.26,2.398-14.621,7.42-20.729,14.139c-0.337,0.371-0.666,0.747-0.991,1.124c-0.139-0.476-0.281-0.953-0.433-1.429
		c-2.765-8.649-7.375-16.275-12.98-21.472c-6.797-6.302-14.741-8.623-21.795-6.366c-5.009,1.603-8.876,5.19-11.417,10.107
		c-6.093-3.391-12.437-6.232-18.982-8.492l3.506-13.085c1.215-4.535-1.476-9.196-6.01-10.411c-4.538-1.214-9.196,1.476-10.411,6.01
		l-3.508,13.091c-7.417-1.42-15.006-2.144-22.688-2.144c-7.75,0-15.327,0.75-22.672,2.165l-3.513-13.111
		c-1.215-4.534-5.875-7.224-10.411-6.01c-4.534,1.215-7.225,5.876-6.01,10.411l3.513,13.112
		c-14.55,5.044-27.84,12.815-39.248,22.708l-9.629-9.629c-3.319-3.319-8.701-3.319-12.021,0c-3.32,3.319-3.32,8.701,0,12.021
		l9.622,9.622c-9.911,11.399-17.703,24.686-22.769,39.237l-13.044-3.495c-4.536-1.213-9.196,1.476-10.411,6.01
		s1.476,9.195,6.01,10.411l13.021,3.489c-1.427,7.353-2.188,14.94-2.198,22.701v0.14c0,7.72,0.742,15.399,2.202,22.928L83.7,163.58
		c-4.534,1.215-7.225,5.876-6.01,10.411c1.018,3.797,4.452,6.302,8.205,6.302c0.728,0,1.469-0.094,2.206-0.292l13.553-3.632
		c2.471,7.107,5.59,13.957,9.337,20.439c3.976,6.887,8.587,13.294,13.77,19.197h-16.258c-4.296,0-7.917,3.205-8.438,7.469
		l-8.262,67.635c-0.295,2.416,0.46,4.843,2.073,6.665s3.93,2.866,6.364,2.866h5.026l20.725,158.197
		c0.554,4.231,4.16,7.396,8.428,7.396h160.729c4.268,0,7.874-3.165,8.428-7.396l20.724-158.197h5.027
		c2.434,0,4.751-1.043,6.364-2.866s2.368-4.249,2.073-6.665l-8.262-67.635c-0.521-4.264-4.142-7.469-8.438-7.469h-16.248
		c3.327-3.789,6.397-7.798,9.228-11.994l11.6,6.697c1.339,0.773,2.8,1.14,4.242,1.14c2.938,0,5.795-1.525,7.369-4.251
		c2.347-4.065,0.954-9.264-3.111-11.611l-11.588-6.69c1.827-3.757,3.455-7.604,4.878-11.527c0.303,0.015,0.606,0.025,0.908,0.025
		c1.847,0,3.671-0.278,5.438-0.844c13.375-4.28,18.609-22.699,12.175-42.852c-0.152-0.474-0.312-0.943-0.475-1.411
		c0.483,0.118,0.967,0.233,1.455,0.34c4.226,0.917,8.333,1.355,12.219,1.355c15.121,0,26.896-6.639,29.274-17.555
		C390.005,109.593,386.939,101.905,380.018,95.738z M275.031,98.504c-3.34,0.228-7.028-0.045-10.754-0.854
		c-5.972-1.298-11.407-3.834-14.913-6.958c-2.533-2.257-3.252-4.13-3.11-4.781c0.417-1.92,8.378-6,21.27-3.204
		c3.721,0.811,7.185,2.091,10.124,3.682C276.023,90.269,275.157,94.379,275.031,98.504z M265.579,141.404
		c1.042-4.579,3.996-9.797,8.105-14.318c2.561-2.817,5.402-5.178,8.251-6.929c1.239,1.629,2.634,3.173,4.201,4.598h0
		c1.568,1.425,3.235,2.672,4.975,3.75c-1.472,3.002-3.551,6.053-6.11,8.869c-4.109,4.521-9.023,7.958-13.481,9.431
		c-3.224,1.065-5.207,0.75-5.699,0.302C265.328,146.658,264.826,144.713,265.579,141.404z M297.571,112.174
		c-6.955-6.321-7.47-17.123-1.148-24.078c3.062-3.369,7.253-5.344,11.801-5.561c4.544-0.216,8.908,1.351,12.277,4.413
		s5.344,7.253,5.561,11.801s-1.35,8.908-4.413,12.277C315.328,117.981,304.525,118.496,297.571,112.174z M346.552,52.318
		c3.222-1.064,5.206-0.751,5.7-0.301c1.454,1.322,1.009,10.259-7.863,20.02c-2.559,2.815-5.397,5.174-8.245,6.925
		c-1.25-1.638-2.651-3.179-4.208-4.594c-1.557-1.415-3.224-2.663-4.973-3.752c1.472-3.001,3.55-6.051,6.108-8.866
		C337.18,57.229,342.094,53.792,346.552,52.318z M289.472,38.364c0.634-0.206,2.567,0.334,5.056,2.641
		c3.443,3.192,6.485,8.362,8.345,14.18c1.159,3.628,1.782,7.269,1.874,10.61c-4.183,0.525-8.177,1.797-11.822,3.757
		c-1.858-2.77-3.458-6.088-4.616-9.705C284.295,47.279,287.601,38.962,289.472,38.364z M287.69,449.233H141.879l-19.466-148.593
		h184.743L287.69,449.233z M319.726,283.641H109.843l6.186-50.635h197.512L319.726,283.641z M149.088,216.005
		c-9.378-7.792-17.247-17.084-23.376-27.702c-4.473-7.737-7.92-16.08-10.245-24.79c-2.286-8.597-3.444-17.508-3.444-26.486v-0.129
		c0.074-56.602,46.172-102.651,102.76-102.651c19.495,0,38.283,5.427,54.628,15.72c0.166,4.761,1.043,9.849,2.706,15.056
		c0.152,0.474,0.312,0.943,0.475,1.41c-0.483-0.118-0.967-0.233-1.455-0.34c-20.671-4.485-38.506,2.479-41.493,16.2
		c-1.575,7.236,1.491,14.923,8.412,21.09c5.707,5.085,13.737,8.948,22.612,10.878c0.492,0.107,0.983,0.187,1.475,0.281
		c-0.349,0.365-0.696,0.732-1.038,1.108c-6.107,6.719-10.405,14.525-12.102,21.98c-2.057,9.037-0.094,17.075,5.384,22.054
		c3.508,3.188,8.125,4.822,13.305,4.822c2.909,0,5.997-0.516,9.162-1.562c7.259-2.398,14.621-7.419,20.729-14.139
		c0.337-0.371,0.666-0.747,0.991-1.124c0.139,0.477,0.281,0.953,0.433,1.429c2.761,8.636,7.361,16.25,12.954,21.447
		c-2.129,6.148-4.839,12.1-8.102,17.754c-6.11,10.599-13.978,19.889-23.371,27.692H149.088z M328.601,160.759
		c-0.39,0.125-2.854-0.623-5.056-2.641c-3.461-3.173-6.485-8.362-8.346-14.182c-1.161-3.633-1.785-7.28-1.876-10.627
		c4.094-0.517,8.103-1.773,11.811-3.759c1.864,2.774,3.469,6.1,4.63,9.727C333.777,151.844,330.472,160.161,328.601,160.759z
		 M371.819,113.212c-0.418,1.919-8.382,6-21.27,3.205c-3.715-0.809-7.172-2.087-10.108-3.674c1.604-3.815,2.491-7.913,2.615-12.127
		c3.336-0.226,7.019,0.048,10.739,0.857c5.971,1.298,11.407,3.834,14.913,6.958C371.242,110.688,371.961,112.562,371.819,113.212z"
		/>
	<path d="M161.191,62.253c-4.694,0-8.5,3.806-8.5,8.5v14.999c0,4.694,3.806,8.5,8.5,8.5s8.5-3.806,8.5-8.5V70.753
		C169.691,66.059,165.886,62.253,161.191,62.253z"/>
	<path d="M198.69,101.251c-4.694,0-8.5,3.806-8.5,8.5v14.999c0,4.694,3.806,8.5,8.5,8.5s8.5-3.806,8.5-8.5v-14.999
		C207.19,105.057,203.384,101.251,198.69,101.251z"/>
	<path d="M153.692,147.749c-4.694,0-8.5,3.806-8.5,8.5v14.999c0,4.694,3.806,8.5,8.5,8.5s8.5-3.806,8.5-8.5v-14.999
		C162.192,151.554,158.386,147.749,153.692,147.749z"/>
	<path d="M225.689,162.748c-4.694,0-8.5,3.806-8.5,8.5v15c0,4.694,3.806,8.5,8.5,8.5s8.5-3.806,8.5-8.5v-15
		C234.189,166.553,230.383,162.748,225.689,162.748z"/>
</g>
<g>
</g>
<g>
</g>
<g>
</g>
<g>
</g>
<g>
</g>
<g>
</g>
<g>
</g>
<g>
</g>
<g>
</g>
<g>
</g>
<g>
</g>
<g>
</g>
<g>
</g>
<g>
</g>
<g>
</g>
</svg>
