<?xml version="1.0" encoding="iso-8859-1"?>
<!-- Generator: Adobe Illustrator 18.0.0, SVG Export Plug-In . SVG Version: 6.00 Build 0)  -->
<!DOCTYPE svg PUBLIC "-//W3C//DTD SVG 1.1//EN" "http://www.w3.org/Graphics/SVG/1.1/DTD/svg11.dtd">
<svg version="1.1" id="Capa_1" xmlns="http://www.w3.org/2000/svg" xmlns:xlink="http://www.w3.org/1999/xlink" x="0px" y="0px"
	 viewBox="0 0 488.644 488.644" style="enable-background:new 0 0 488.644 488.644;" xml:space="preserve">
<g>
	<path d="M374.747,88.23c3.856,5.367,6.411,11.878,7.46,19.211c6.348-3.583,13.913-5.529,22.101-5.529
		c9.155,0,18.573,2.388,27.33,6.824c7.792-6.211,14.008-12.756,16.851-17.582c8.435-14.319-0.604-35.335-20.148-46.85
		c-8.1-4.771-16.901-7.293-25.451-7.293c-2.691,0-5.255,0.258-7.668,0.744c0.507,3.86,0.412,7.766-0.331,11.642
		C392.853,60.035,384.853,75.387,374.747,88.23z"/>
	<path d="M205.765,144.037c10.346-9.233,25.584-14.834,42.603-14.329c9.606,0.289,18.797,2.527,26.844,6.435
		c-0.228-0.41-0.471-0.818-0.692-1.229c-1.637-3.028-3.06-5.997-4.296-8.904c-14.016-4.206-24.26-17.218-24.26-32.585
		c0-3.421,0.513-6.723,1.457-9.84c-1.482-2.251-2.887-4.587-4.209-6.981c-16.543,0.153-30.778,3.807-37.114,7.216
		c-6.783,3.649-11.35,10.693-12.858,19.835c-1.619,9.812,0.443,20.705,5.806,30.674
		C200.956,137.879,203.239,141.124,205.765,144.037z"/>
	<path d="M328.487,67.65c14.033,1.788,27.697,5.768,35.768,10.756c0.07,0.043,0.136,0.092,0.205,0.136
		c8.587-11.128,15.135-23.713,16.68-31.78c1.45-7.565-1.133-15.552-7.272-22.49c-6.591-7.447-16.343-12.722-27.461-14.851
		c-3.434-0.658-6.904-0.991-10.317-0.991c-1.407,0-2.788,0.061-4.146,0.169c4.992,6.982,7.534,14.939,7.286,23.208
		C338.941,41.373,334.807,54.868,328.487,67.65z"/>
	<path d="M364.698,216.63c3.344,2.286,7.241,3.494,11.27,3.494c6.63,0,12.817-3.262,16.552-8.726
		c6.228-9.112,3.882-21.592-5.23-27.821c-3.344-2.285-7.242-3.494-11.271-3.494c-6.629,0-12.816,3.262-16.55,8.725
		C353.239,197.92,355.586,210.401,364.698,216.63z"/>
	<path d="M355.033,148.979c-11.73-6.685-24.212-11.47-33.138-12.418c-1.265-0.134-2.55-0.203-3.819-0.203
		c-7.754,0-15.123,2.445-21.613,6.767c-3.387-4.454-6.71-9.472-9.628-14.868c-0.251-0.464-0.477-0.918-0.715-1.377
		C301.956,123.98,314,110.088,314,93.426c0-1.031-0.054-2.049-0.145-3.057c2.419-2.83,4.776-5.985,7.058-9.448
		c15.387,1.137,29.473,5.372,35.981,9.395c6.552,4.049,11.128,11.319,11.645,20.569
		C369.103,120.974,368.683,128.691,355.033,148.979z"/>
	<path d="M409.994,200.496c16.091-6.271,32.268-17.707,38.366-26.077c4.536-6.225,5.603-14.551,3.006-23.445
		c-2.788-9.546-9.362-18.474-18.512-25.138c-8.784-6.399-18.923-9.924-28.547-9.924c-9.748,0-17.721,3.575-22.448,10.065
		c-0.078,0.107-0.159,0.238-0.238,0.35c-1.497,7.611-4.468,15.168-8.807,22.188c-0.227,0.366-0.462,0.723-0.694,1.083
		c-1.301,5.065-2.352,10.542-2.962,16.179c-0.038,0.351-0.064,0.689-0.097,1.036c2.266-0.472,4.593-0.731,6.956-0.731
		c6.86,0,13.489,2.053,19.172,5.936C404.918,178.669,410.105,189.513,409.994,200.496z"/>
	<path d="M242.912,203.085c11.826,0,22.258,6.07,28.355,15.254c1.16-1.689,2.27-3.448,3.344-5.242
		c-2.486-8.052-3.433-17.044-2.44-26.376c1.137-10.686,4.586-20.39,9.657-28.367c-1.29-1.521-2.75-2.98-4.413-4.344
		c-7.688-6.308-18.152-9.969-29.467-10.308c-0.567-0.017-1.132-0.026-1.693-0.026c-21.76,0-39.851,12.973-40.329,28.919
		c-0.302,10.07,4.803,26.861,12.553,40.873C224.668,207.073,233.331,203.085,242.912,203.085z"/>
	<path d="M441.245,240.935c-3.357-7.564-13.01-18.898-24.403-28.037c-3.696,1.509-7.442,2.806-11.168,3.813
		c-0.491,0.876-1.018,1.742-1.596,2.587c-6.346,9.284-16.854,14.826-28.11,14.826c-3.515,0-6.967-0.547-10.264-1.595
		c-1.229,0.659-2.491,1.307-3.797,1.941c-1.392,15.129,0.283,31.159,4.134,39.837c4.238,9.551,15.261,15.484,28.766,15.484
		c6.97,0,14.253-1.598,21.063-4.62C436.603,275.97,447.986,256.125,441.245,240.935z"/>
	<path d="M196.783,155.042c-3.181-3.421-6.072-7.255-8.571-11.452c-3.096-1.89-6.647-2.921-10.362-2.921
		c-5.384,0-10.434,2.106-14.223,5.931c-3.763,3.799-5.821,8.836-5.795,14.183c0.026,5.347,2.132,10.364,5.931,14.126
		c3.773,3.738,8.775,5.796,14.086,5.796c5.327,0,10.325-2.069,14.099-5.818c-0.035-0.944-0.041-1.851-0.015-2.712
		C192.116,166.046,193.832,160.259,196.783,155.042z"/>
	<path d="M177.85,126.67c1.066,0,2.123,0.063,3.171,0.161c-1.731-6.23-2.501-12.556-2.263-18.717
		c-3.755-9.793-8.549-18.404-13.143-23.236c-5.793-6.092-13.433-7.371-18.823-7.371c-10.909,0-22.484,5.057-31.758,13.876
		c-8.203,7.8-13.558,17.507-15.078,27.335c-1.416,9.156,0.727,17.272,6.034,22.853c6.189,6.509,21.741,15.379,37.862,19.983
		c-0.006-0.235-0.02-0.468-0.02-0.704c-0.044-9.086,3.454-17.646,9.849-24.102C160.118,130.249,168.701,126.67,177.85,126.67z"/>
	<path d="M229.307,24.904c-5.884-4.605-14.162-7.288-23.597-7.288c-5.647,0-11.355,0.957-16.966,2.844
		c-21.499,7.231-34.681,25.929-29.383,41.682c0.381,1.132,0.896,2.358,1.504,3.642c5.733,1.962,10.815,5.156,14.896,9.449
		c2.755,2.897,5.65,6.947,8.438,11.776c3.564-6.682,8.745-12.007,15.266-15.515c8.427-4.534,22.735-7.789,37.238-8.657
		c-5.183-12.919-7.955-25.797-7.7-34.337C229.04,27.285,229.152,26.089,229.307,24.904z"/>
	<path d="M149.647,284.64c-0.798-1.484-1.513-2.985-2.188-4.492c-33.05,33.113-58.787,66.366-77.46,93.732
		c-38.305,56.139-55.682,99.249-56.403,101.057c-2.046,5.13,0.454,10.947,5.584,12.993c1.215,0.484,2.469,0.714,3.702,0.714
		c3.972,0,7.73-2.383,9.292-6.298c0.168-0.422,17.271-42.856,54.347-97.193c17.524-25.683,41.461-56.712,71.998-87.758
		C155.169,293.591,152.166,289.323,149.647,284.64z"/>
	<path d="M347.65,343.982c2.697,0,5.443-0.206,8.16-0.611c11.195-1.67,21.156-6.539,28.047-13.709
		c6.42-6.68,9.329-14.554,8.193-22.171c-0.176-1.179-0.46-2.461-0.821-3.809c-17.514-1.065-31.88-9.939-37.985-23.696
		c-3.616-8.147-5.967-21.914-5.855-36.517c-1.39-0.201-2.778-0.274-4.163-0.221c4.707,14.584,2.471,32.839-7.481,48.944
		c-6.562,10.616-15.498,18.856-25.37,23.831c0.045,1.332,0.144,2.546,0.302,3.608C312.781,333.741,328.331,343.982,347.65,343.982z"
		/>
	<path d="M455.986,240.909c8.8-5.93,15.918-16.792,18.61-29.757c2.301-11.082,1.174-22.11-3.174-31.054
		c-1.686-3.467-3.776-6.43-6.187-8.824c-1.181,4.081-3.029,7.915-5.56,11.388c-5.265,7.227-16.208,16.294-29.117,23.573
		c11.096,9.832,19.902,20.952,23.483,29.021C454.861,237.104,455.497,238.994,455.986,240.909z"/>
	<path d="M300,93.426c0-11.038-8.979-20.018-20.018-20.018c-11.038,0-20.019,8.98-20.019,20.018c0,11.038,8.98,20.018,20.019,20.018
		C291.021,113.444,300,104.464,300,93.426z"/>
	<path d="M162.394,215.169c8.425-4.533,22.732-7.791,37.233-8.661c-2.199-5.483-3.965-10.958-5.248-16.098
		c-4.997,2.794-10.642,4.295-16.531,4.295c-9.025,0-17.526-3.498-23.938-9.849c-2.402-2.379-4.405-5.055-5.977-7.944
		c-2.593-0.531-5.208-1.177-7.819-1.918c-10.306,10.6-18.684,23.302-21.082,31.429c-2.181,7.388-0.389,15.589,5.044,23.094
		c4.455,6.153,10.879,11.212,18.501,14.689C144.883,231.619,151.672,220.938,162.394,215.169z"/>
	<path d="M197.061,302.636c3.955,0,7.639-0.903,10.948-2.684c6.773-3.644,17.706-13.944,26.553-27.131
		c-0.487-1.051-0.952-2.094-1.391-3.129c-14.025-4.2-24.277-17.217-24.277-32.59c0-3.417,0.512-6.716,1.454-9.83
		c-1.483-2.252-2.886-4.594-4.21-6.99c-16.542,0.153-30.776,3.806-37.111,7.215c-14.636,7.875-17.8,30.534-7.052,50.51
		C169.901,292.738,184.001,302.636,197.061,302.636z"/>
	<path d="M323.835,284.831c8.377-13.554,9.958-28.824,5.271-39.749c-5.033,0.886-9.837,1.37-14.125,1.37
		c-1.69,0-3.289-0.079-4.749-0.234c-11.713-1.246-21.747-8.151-28.629-18.361c-1.575,2.207-3.184,4.268-4.819,6.183
		c0.091,1.01,0.145,2.03,0.145,3.064c0,16.663-12.045,30.556-27.884,33.454c0.237,0.457,0.469,0.914,0.719,1.376
		c8.251,15.263,19.73,27.674,26.804,32.046c3.632,2.245,7.788,3.383,12.354,3.383C301.671,307.361,315.375,298.518,323.835,284.831z
		"/>
	<path d="M314.486,10.334c-7.688-6.308-18.152-9.969-29.467-10.308C284.452,0.009,283.888,0,283.326,0
		c-21.76,0-39.851,12.973-40.329,28.919c-0.302,10.069,4.803,26.86,12.553,40.872c6.188-6.395,14.852-10.383,24.433-10.383
		c11.825,0,22.256,6.068,28.353,15.25c9.611-13.98,16.568-32.258,16.898-43.272C325.466,23.688,321.648,16.211,314.486,10.334z"/>
	<path d="M311.713,232.296c0.971,0.104,2.07,0.156,3.269,0.156c8.878,0,21.916-2.839,33.971-7.646
		c0.185-1.106,0.391-2.203,0.611-3.292c-9.209-11.381-10.329-27.914-1.654-40.605c1.901-2.782,4.184-5.22,6.74-7.282
		c0.048-2.625,0.205-5.342,0.478-8.151c-13.138-8.815-27.089-14.183-34.713-14.993c-0.775-0.083-1.563-0.125-2.339-0.125
		c-15.678,0-29.727,16.623-31.983,37.844C283.693,210.758,295.188,230.538,311.713,232.296z"/>
	<path d="M242.912,257.121c11.037,0,20.017-8.98,20.017-20.018c0-11.038-8.979-20.017-20.017-20.017
		c-11.038,0-20.018,8.98-20.018,20.017C222.894,248.141,231.874,257.121,242.912,257.121z"/>
	<path d="M214.642,312.281c-4.042,2.175-8.392,3.541-12.98,4.085c-0.149,0.501-0.286,0.993-0.399,1.465
		c-1.794,7.49,0.42,15.587,6.234,22.8c6.241,7.742,15.741,13.458,26.749,16.096c4.207,1.008,8.466,1.519,12.66,1.519
		c17.238,0,31.371-8.735,34.367-21.243c0.908-3.788,1.252-9.514,0.862-16.238c-4.615-0.802-8.947-2.419-12.927-4.878
		c-8.53-5.272-18.997-16.78-27.14-29.496C233.435,297.802,223.006,307.781,214.642,312.281z"/>
</g>
<g>
</g>
<g>
</g>
<g>
</g>
<g>
</g>
<g>
</g>
<g>
</g>
<g>
</g>
<g>
</g>
<g>
</g>
<g>
</g>
<g>
</g>
<g>
</g>
<g>
</g>
<g>
</g>
<g>
</g>
</svg>
