<?xml version="1.0" encoding="iso-8859-1"?>
<!-- Generator: Adobe Illustrator 18.0.0, SVG Export Plug-In . SVG Version: 6.00 Build 0)  -->
<!DOCTYPE svg PUBLIC "-//W3C//DTD SVG 1.1//EN" "http://www.w3.org/Graphics/SVG/1.1/DTD/svg11.dtd">
<svg version="1.1" id="Capa_1" xmlns="http://www.w3.org/2000/svg" xmlns:xlink="http://www.w3.org/1999/xlink" x="0px" y="0px"
	 viewBox="0 0 463.875 463.875" style="enable-background:new 0 0 463.875 463.875;" xml:space="preserve">
<g>
	<path d="M111.034,96.289c-5.886-1.912-12.044-2.882-18.304-2.882c-36.263,0-71.725,31.194-86.237,75.857
		c-8.497,26.152-8.659,53.207-0.455,76.18c7.976,22.333,22.94,38.067,42.138,44.305c10.524,3.419,26.13,5.303,43.941,5.303
		c52.765,0,111.305-15.943,129.352-46.529c-53.998-10.461-95.52-98.429-103.667-149.656
		C115.456,97.861,113.189,96.99,111.034,96.289z"/>
	<path d="M333.401,89.487c0.235-2.52,0.353-4.863,0.353-7c0-20.186-10.341-39.28-29.116-53.766
		c-19.314-14.902-45.095-23.108-72.593-23.108c-56.081,0-101.707,34.485-101.707,76.874c0,19.948,10.617,58.616,30.909,93.925
		c8.732,15.192,23.795,37.452,42.762,49.883c-16.515-21.718-39.062-59.871-38.94-106.194c0.001-0.422,0.046-0.832,0.118-1.233
		c-5.247-2.868-10.893-7.55-16.395-15.057c-2.286-3.118-1.611-7.498,1.507-9.784c3.119-2.287,7.5-1.61,9.784,1.507
		c12.313,16.797,23.62,13.331,23.732,13.291c3.635-1.307,7.646,0.582,8.955,4.22c1.307,3.638-0.582,7.647-4.221,8.955
		c-0.309,0.111-3.152,1.085-7.539,1.085c-0.608,0-1.249-0.021-1.914-0.064c0.719,35.244,16.154,65.717,29.948,86.053
		c-8.776-35.335-20.523-101.699-0.336-148.604c-3.279-2.687-6.624-6.165-9.917-10.658c-2.286-3.118-1.611-7.498,1.507-9.784
		c3.119-2.287,7.5-1.61,9.784,1.507c12.313,16.797,23.62,13.331,23.732,13.291c3.635-1.307,7.646,0.582,8.955,4.22
		c1.307,3.638-0.582,7.647-4.221,8.955c-0.309,0.111-3.152,1.085-7.539,1.085c-2.798,0-6.225-0.401-10.021-1.671
		c-13.535,32.921-10.048,77.439-3.978,111.395c0.602-22.007,4.909-47.549,17.476-71.957c-3.843-2.842-7.805-6.732-11.695-12.04
		c-2.286-3.118-1.611-7.498,1.507-9.784c3.119-2.287,7.5-1.61,9.784,1.507c12.313,16.797,23.62,13.331,23.732,13.291
		c3.635-1.307,7.646,0.582,8.955,4.22c1.307,3.638-0.582,7.647-4.221,8.955c-0.309,0.111-3.152,1.085-7.539,1.085
		c-2.28,0-4.979-0.268-7.953-1.052c-13.814,26.755-16.668,55.517-15.869,78.297c6.643-14.503,16.229-27.961,25.48-38.994
		C278.114,126.754,307.836,102.47,333.401,89.487z"/>
	<path d="M301.542,458.263c23.548,0,48.255-8.528,69.568-24.013c45.37-32.964,62.012-87.682,37.097-121.975
		c-20.881-28.738-90.552-73.058-140.339-73.058c-9.229,0-17.308,1.561-24.173,4.598c37.609,40.125,19.545,135.675-3.963,181.975
		c1.321,2.253,2.63,4.291,3.908,6.051C256.021,448.879,276.583,458.263,301.542,458.263z"/>
	<path d="M457.407,169.344c-14.512-44.663-49.974-75.855-86.236-75.855c-6.261,0-12.419,0.97-18.305,2.882
		c-4.295,1.396-9.341,3.613-14.885,6.548c0-0.009-0.002-0.018-0.002-0.026c-42.123,22.237-105.727,83.022-101.119,128.627
		c8.908-4.18,19.289-6.303,31.009-6.303c47.987,0,110.636,36.166,140.915,66.474c2.498-0.559,4.832-1.175,6.941-1.86
		C456.039,276.731,474.737,222.681,457.407,169.344z"/>
	<path d="M92.441,434.189c21.313,15.485,46.019,24.013,69.566,24.013c24.958,0,45.521-9.384,57.901-26.423
		c11.725-16.139,25.864-53.663,30.201-94.155c2.455-22.907,3.217-62.112-15.797-83.333c-9.351,16.936-28.087,30.818-54.88,40.514
		c-25.021,9.055-56.846,14.248-87.312,14.248h-0.005c-11.821-0.001-22.843-0.806-32.347-2.321c-1.645,1.875-3.142,3.711-4.428,5.482
		c-11.865,16.33-14.723,37.856-8.048,60.612C54.161,396.233,70.195,418.026,92.441,434.189z"/>
</g>
<g>
</g>
<g>
</g>
<g>
</g>
<g>
</g>
<g>
</g>
<g>
</g>
<g>
</g>
<g>
</g>
<g>
</g>
<g>
</g>
<g>
</g>
<g>
</g>
<g>
</g>
<g>
</g>
<g>
</g>
</svg>
