<?xml version='1.0' encoding='iso-8859-1'?>
<svg version="1.1" xmlns="http://www.w3.org/2000/svg" viewBox="0 0 463 463" xmlns:xlink="http://www.w3.org/1999/xlink" enable-background="new 0 0 463 463">
  <path d="m440.116,321.532c14.435-31.932 22.884-69.797 22.884-103.639 0-77.813-75.968-142.65-126.215-151.389-7.434-1.293-14.665-1.526-21.545-0.776-23.557-35.552-69.788-47.335-83.74-47.335s-60.184,11.784-83.74,47.336c-6.881-0.75-14.111-0.518-21.545,0.775-50.247,8.738-126.215,73.576-126.215,151.389 0,33.842 8.449,71.707 22.884,103.639-2.857,4.976-7.36,14.244-9.48,26.206-2.935,16.563-1.771,41.646 20.446,67.088 17.253,19.757 40.847,29.781 68.833,29.781 16.893,0 35.39-3.656 55.045-11.03 19.977-7.495 39.82-18.459 55.876-30.875 6.135-4.744 12.894-10.612 17.896-16.699 5.002,6.087 11.76,11.955 17.896,16.699 16.056,12.416 35.899,23.381 55.876,30.875 19.658,7.375 38.15,11.03 55.045,11.03 27.983,0 51.582-10.026 68.833-29.781 22.217-25.442 23.381-50.525 20.446-67.088-2.12-11.963-6.623-21.23-9.48-26.206zm-105.901-240.25c22.384,3.893 51.07,21.463 73.084,44.762 26.246,27.78 40.701,60.399 40.701,91.849 0,33.221-8.639,69.819-22.601,99.671-0.511,0.721-0.888,1.518-1.116,2.354-16.354,33.864-39.616,58.474-64.783,58.474-26.126,0-35.944-14.209-45.439-27.951-3.902-5.647-7.882-11.401-12.958-15.289 11.59-15.163 17.897-33.665 17.897-52.97 0-16.78-4.825-33.138-13.954-47.304-1.229-1.906-3.253-3.154-5.508-3.395-2.262-0.241-4.497,0.551-6.101,2.154l-27.644,27.643c-2.929,2.929-2.929,7.677 0,10.606 9.161,9.161 14.206,21.341 14.206,34.295 0,24.128-17.454,44.295-41,47.922v-89.62c13.759-3.374 24-15.806 24-30.591 0-3.257-0.497-6.401-1.419-9.358 1.951-3.16 4.024-8.417 6.251-17.895 2.039-8.677 4.008-20.001 5.851-33.66 3.181-23.57 5.317-49.581 5.317-59.086 0-6.018 4.002-15.456 12.942-22.976 4.469-3.758 10.96-7.671 19.804-9.538 0.741-0.024 1.483-0.162 2.205-0.414 5.792-0.952 12.515-1.031 20.265,0.317zm-52.819,185.61l15.635-15.634c4.579,9.651 6.969,20.185 6.969,30.924 0,13.521-3.777,26.262-10.356,37.176 0.89-4.255 1.356-8.662 1.356-13.176 0-14.435-4.785-28.136-13.604-39.29zm-49.896-49.499c9.098,0 16.5,7.402 16.5,16.5s-7.402,16.5-16.5,16.5-16.5-7.402-16.5-16.5 7.402-16.5 16.5-16.5zm0-184c12.389,0 48.036,10.836 67.935,36.06-6.262,2.357-12.039,5.687-17.148,9.985-11.108,9.343-18.287,22.868-18.287,34.455 0,7.408-1.699,30.604-4.891,54.887-2.914,22.173-5.632,34.297-7.569,40.828-5.449-4.505-12.434-7.215-20.04-7.215s-14.591,2.71-20.04,7.215c-1.937-6.531-4.656-18.655-7.569-40.828-3.191-24.283-4.891-47.479-4.891-54.887 0-11.587-7.179-25.111-18.287-34.456-5.11-4.297-10.887-7.627-17.149-9.984 19.899-25.224 55.547-36.06 67.936-36.06zm-175.799,92.651c22.014-23.299 50.7-40.869 73.084-44.762 7.725-1.344 14.431-1.269 20.209-0.325 0.758,0.27 1.539,0.416 2.317,0.434 8.815,1.871 15.288,5.776 19.747,9.526 8.94,7.52 12.942,16.958 12.942,22.976 0,9.506 2.137,35.517 5.317,59.086 1.843,13.659 3.812,24.983 5.851,33.66 2.227,9.477 4.301,14.735 6.251,17.895-0.922,2.958-1.419,6.101-1.419,9.358 0,14.785 10.241,27.216 24,30.591v89.62c-23.546-3.626-41-23.793-41-47.922 0-12.955 5.045-25.134 14.206-34.294 2.929-2.929 2.929-7.678 0-10.606l-27.644-27.644c-1.604-1.604-3.859-2.397-6.101-2.154-2.255,0.241-4.279,1.489-5.508,3.395-9.128,14.166-13.953,30.524-13.953,47.304 0,19.305 6.307,37.807 17.898,52.972-5.076,3.888-9.056,9.641-12.958,15.289-9.495,13.741-19.313,27.951-45.439,27.951-25.147,0-48.391-24.571-64.743-58.392-0.234-0.9-0.638-1.758-1.199-2.527-13.938-29.836-22.559-66.395-22.559-99.582 0-31.45 14.455-64.069 40.701-91.849zm112.299,180.138c0,4.514 0.467,8.921 1.356,13.176-6.579-10.914-10.356-23.655-10.356-37.176 0-10.74 2.39-21.273 6.969-30.924l15.635,15.634c-8.819,11.154-13.604,24.855-13.604,39.29zm32.315,87.731c-16.909,12.254-37.881,22.806-57.538,28.951-53.233,16.645-82.474-0.551-97.628-17.905-23.193-26.559-19.24-52.093-13.75-66.553 19.967,35.515 45.403,54.986 72.101,54.986 33.994,0 47.742-19.896 57.78-34.424 4.459-6.454 7.602-10.818 10.821-12.629 14.282,13.21 32.459,21.266 51.93,22.919-0.013,0.182-0.028,0.364-0.028,0.55-0.276,2.466-6.431,11.6-23.688,24.105zm217.536,11.047c-15.154,17.354-44.393,34.547-97.628,17.905-19.657-6.145-40.629-16.697-57.538-28.951-17.198-12.462-23.369-21.577-23.685-24.079-0.001-0.133-0.015-0.263-0.023-0.395-0.004-0.06-0.004-0.121-0.009-0.18 19.471-1.653 37.649-9.709 51.931-22.919 3.219,1.811 6.362,6.175 10.821,12.629 10.038,14.528 23.786,34.424 57.78,34.424 26.698,0 52.133-19.47 72.1-54.984 5.492,14.467 9.439,39.996-13.749,66.55z"/>
</svg>
