<?xml version='1.0' encoding='iso-8859-1'?>
<svg version="1.1" xmlns="http://www.w3.org/2000/svg" viewBox="0 0 463.032 463.032" xmlns:xlink="http://www.w3.org/1999/xlink" enable-background="new 0 0 463.032 463.032">
  <path d="m455.569,252.616c-0.103-0.971-2.633-24.1-12.063-51.997-3.169-9.375-6.698-18.095-10.576-26.154 0.005-0.05 0.016-0.099 0.021-0.149 2.91-32.742-2.694-66.589-2.934-68.014-0.196-1.162-0.662-2.261-1.362-3.208-1.315-1.782-14.032-17.557-55.837-24.417-4.387-9.477-7.815-15.681-8.326-16.595-0.895-1.601-2.346-2.818-4.077-3.422-0.413-0.144-4.377-1.516-10.733-3.404-11.803-32.461-38.301-50.073-39.446-50.82-0.457-0.298-0.945-0.546-1.456-0.738-1.505-0.567-36.908-13.455-70.431,12.5-11.688-2.958-24.367-5.271-38.018-6.921-31.51-3.809-56.149-2.533-57.183-2.477-1.315,0.071-2.588,0.488-3.69,1.207-1.966,1.283-29.903,19.758-54.173,48.201-34.173,4.874-57.63,29.028-58.634,30.079-0.55,0.575-1.005,1.233-1.347,1.952-0.661,1.384-15.54,33.409 0.904,70.238-10.477,14.553-17.009,25.831-17.797,27.206-0.888,1.552-1.192,3.37-0.858,5.127 0.224,1.176 5.62,29.149 17.604,58.248 0.189,0.459 0.382,0.903 0.572,1.357-0.172,0.274-0.333,0.556-0.472,0.858-12.452,27.101-17.544,60.642-17.754,62.056-0.242,1.624 0.056,3.281 0.846,4.719 0.257,0.467 6.4,11.561 16.203,22.764 13.935,15.925 28.006,24 41.823,24 0.126,0 0.248-0.013 0.373-0.019 17.157,31.828 37.303,54.858 38.786,56.535 0.915,1.034 2.096,1.795 3.416,2.2 0.935,0.287 23.244,7.064 52.76,9.554 7.241,0.611 14.234,0.916 20.985,0.916 5.661,0 11.146-0.219 16.456-0.647 0.215,0.213 0.439,0.419 0.684,0.609 26.416,20.52 56.652,28.502 57.927,28.832 0.615,0.159 1.247,0.239 1.879,0.239 0.438,0 0.877-0.039 1.311-0.116 5.575-0.99 13.904-6.036 22.28-13.499 6.931-6.175 17.061-16.844 26.393-32.792 3.565-0.19 5.715-0.357 6.038-0.383 1.869-0.149 3.615-0.992 4.893-2.364 0.446-0.479 6.43-6.938 14.434-17.073 2.476,0.122 4.927,0.185 7.341,0.185 28.542,0 51.962-7.908 53.066-8.286 1.019-0.35 1.95-0.914 2.73-1.655 6.238-5.923 18.329-29.559 16.302-65.056 4.42-5.516 8.787-11.406 13.096-17.673 17.346-25.23 27.039-46.963 27.443-47.876 0.532-1.2 0.739-2.521 0.601-3.827zm-40.006-141.632c0.821,5.584 2.874,21.177 3.175,39.127-8.888-12.574-19.025-22.672-30.359-30.212-2.5-8.732-5.451-17.071-8.416-24.568 22.516,5.075 32.506,12.774 35.6,15.653zm-44.206,4.613c9.008,27.241 11.103,49.425 6.224,64.91-16.589-27.489-34.167-42.591-52.292-44.933-1.598-7.052-2.925-11.583-3.028-11.929-0.661-2.238-2.327-4.042-4.506-4.877-1.4-0.537-17.755-6.718-38.039-10.666 0.602-16.423-12.642-30.41-39.434-41.676 8.265-6.905 25.472-11.999 60.975-6.764 22.842,3.369 44.125,9.87 51.494,12.255 3.287,6.261 11.926,23.481 18.606,43.68zm-6.162,151c-13.083,19.946-26.575,30.722-40.22,32.181 7.563-15.901 9.92-29.564 6.996-40.809-2.931-11.27-10.81-19.635-23.441-24.968 5.788-2.85 10.541-7.277 14.183-13.249 7.999-13.115 10.294-33.439 6.824-60.41-0.341-2.651-0.722-5.229-1.125-7.712 25.575,8.632 47.897,55.596 55.857,77.036-2.284,6.046-8.921,22.452-19.074,37.931zm-203.309,97.971c-19.759-0.984-39.095-3.969-47.228-5.343-10.716-27.201-22.837-68.784-19.905-90.442 7.63,12.832 16.328,21.421 26.033,25.645 4.704,2.047 9.543,3.069 14.505,3.068 8.333,0 17.007-2.884 25.944-8.634 0.017,0.017 0.035,0.033 0.052,0.05-5.351,16.502-3.74,30.891 4.826,42.798 9.672,13.444 27.152,21.453 45.186,26.218-5.573,4.542-20.603,8.073-49.413,6.64zm-16.22-272.851c13.261-12.834 28.228-23.038 33.838-26.701 29.172,4.792 82.819,19.95 85.152,40.749-18.909-2.135-38.818-1.097-52.264,8.454-8.327,5.916-13.484,14.303-15.437,25.004-5.645-8.353-13.312-13.657-22.893-15.81-13.752-3.089-30.96,0.676-51.303,11.189-2.923-14.092 10.404-30.784 22.907-42.885zm5.39,136.973c5.657,13.312 14.157,21.865 21.779,27.238 12.175,8.583 27.47,12.921 44.41,12.921 10.849,0 22.373-1.787 34.183-5.371-5.744,16.038-20.65,29.409-33.826,34.802-36.968-1.647-66.54-32.225-66.546-69.59zm69.681-69.693c0.633,0 1.259,0.031 1.888,0.048-2.911,3.246-5.23,7.087-6.673,11.36-2.404,7.121-2.213,14.448 0.342,21.363-2.453,5.415-6.322,6.899-13.678,9.307-10.725,3.511-24.978,8.198-30.576,33.74-7.969-9.894-12.199-23.353-12.388-39.625 11.863-21.552 34.794-36.193 61.085-36.193zm31.802,88.336c-25.856,9.141-50.006,8.646-67.165-1.196 2.747-24.523 11.21-27.305 21.909-30.807 5.762-1.886 12.511-4.101 17.78-9.863 1.66,1.74 3.498,3.411 5.52,4.996 14.452,11.323 22.217,23.588 23.19,36.557-0.413,0.071-0.826,0.169-1.234,0.313zm15.811,10.009c2.111-14.926-1.122-37.223-28.517-58.687-8.838-6.925-12.363-15.473-9.669-23.452 2.253-6.675 8.543-11.593 15.007-11.773 26.404,9.92 45.247,35.421 45.247,65.248 0,27.083-15.541,50.589-38.165,62.115 8.158-9.44 14.329-20.953 16.097-33.451zm36.342-39.562c-5.367-41.561-40.957-73.783-83.956-73.783-3.181,0-6.317,0.192-9.407,0.535 0.904-8.124 4.115-14.079 9.743-18.081 20.222-14.378 67.261-2.223 87.807,5.035 5.01,18.839 12.783,61.196 1.024,80.463-1.465,2.4-3.202,4.324-5.211,5.831zm-133.917-79.732c6.905,1.551 12.113,5.868 15.847,13.151-29.746,13.149-50.566,42.92-50.566,77.479 0,18.074 5.71,34.83 15.395,48.596-9.195,5.486-17.309,6.605-24.673,3.401-26.241-11.413-40.027-73.064-43.875-100.482 18.206-15.809 61.986-47.959 87.872-42.145zm7.516,184.902c-4.745-6.596-6.148-14.399-4.257-23.681 13.398,8.893 29.452,14.09 46.702,14.09 40.363,0 74.2-28.396 82.637-66.253 7.78,3.437 12.42,8.26 14.079,14.633 3.233,12.42-4.375,32.284-21.421,55.93-10.775,14.947-22.405,27.403-27.037,32.195-22.354,0.149-74.437-4.303-90.703-26.914zm124.438-305.476c3.392,2.406 18.418,13.777 28.387,32.79-8.258-1.992-17.672-3.958-27.469-5.411-1.312-0.195-2.61-0.377-3.894-0.547-0.144-0.131-0.288-0.262-0.444-0.383-11.451-8.919-25.517-16.294-42.079-22.086 21.331-11.106 41.32-5.705 45.499-4.363zm-156.736,4.225c12.139-0.379 75.895-1.195 122.583,21.004-20.599,1.038-35.179,7.081-43.566,18.071-23.078-7.548-45.077-10.882-46.047-11.027-1.745-0.259-3.53,0.104-5.035,1.029-0.838,0.515-20.73,12.818-38.531,30.002-1.412,1.363-2.829,2.784-4.236,4.245-0.586-0.195-1.202-0.328-1.846-0.372-20.81-1.439-41.434,9.768-59.603,25.193 16.697-45.171 66.526-81.387 76.281-88.145zm-107.628,74.099c3.263-3.109 15.346-13.879 32.359-20.369-10.584,15.978-18.752,34.017-20.914,53.256-0.021,0.189-0.028,0.376-0.035,0.563-4.598,5.038-8.916,10.152-12.901,15.145-7.524-23.817-0.506-43.73 1.491-48.595zm-15.528,94.963c4.075-6.759 16.688-26.887 33.697-46.537 16.185-18.697 39.247-40.244 62.097-44.092-9.034,13.037-14.505,27.838-9.283,42.102-1.211,0.748-2.429,1.51-3.659,2.3-20.018,12.859-35.15,26.564-35.784,27.142-1.794,1.632-2.688,4.031-2.4,6.439 0.118,0.984 2.975,24.413 10.574,50.255 2.367,8.049 4.921,15.403 7.656,22.065-6.607,9.523-8.073,25.086-4.39,47.247-9.428-3.544-17.815-11.599-25.114-21.972-0.155-0.25-0.321-0.493-0.503-0.723-17.489-25.275-28.656-63.689-32.891-84.226zm-.081,122.255c1.169-6.755 4.841-25.968 11.573-44.337 2.585,4.854 5.248,9.336 7.993,13.427-0.016,22.703 6.951,45.681 16.27,66.255-15.294-5.453-29.711-25.065-35.836-35.345zm92.627,96.752c-7.924-9.42-47.337-58.296-56.265-108.232 8.015,6.861 16.556,11.044 25.593,12.524 0.582,2.426 1.207,4.907 1.884,7.458 6.615,24.906 15.35,46.315 15.719,47.215 0.963,2.349 3.049,4.052 5.543,4.524 1.06,0.201 26.273,4.935 53.143,6.285 0.838,0.042 1.659,0.076 2.481,0.111 8.72,16.495 30.169,27.664 63.92,33.322-45.422,13.718-100.804-0.121-112.018-3.207zm144.236,37.96c-5.473-1.635-21.951-7.053-38.873-17.512 13.571-2.93 25.682-7.574 36.276-13.898 10.261,0.687 20.049,0.926 28.58,0.926 2.049,0 4.024-0.014 5.918-0.037-13.072,19.077-26.901,28.446-31.901,30.521zm51.949-46.245c-8.48,0.512-34.302,1.7-61.4-0.74-32.896-2.962-56.344-10.302-67.835-21.012 25.129-1.036 39.892-7.108 44.86-18.383 18.138,3.111 34.62,3.499 41.679,3.499 1.938,0 3.167-0.029 3.524-0.039 1.898-0.052 3.706-0.823 5.058-2.156 0.651-0.642 16.108-15.946 30.622-36.043 3.206-4.44 6.106-8.753 8.7-12.937 1.722,0.195 3.421,0.3 5.094,0.3 16.325,0 30.286-8.964 41.681-20.996 7.416,33.414-32.291,86.68-51.983,108.507zm77.144-26.396c-5.453,1.644-22.493,6.286-42.594,6.842 2.001-2.833 4.028-5.8 6.042-8.87 0.054-0.022 0.11-0.037 0.164-0.061 16.081-6.89 31.78-18.203 46.938-33.776-1.582,18.95-7.532,31.719-10.55,35.865zm-21.808-27.588c13.661-27.827 16.254-50.663 7.716-68.103 15.518-21.858 24.064-46.352 24.727-48.293 0.544-1.592 0.537-3.32-0.02-4.908-0.238-0.678-4.798-13.567-12.796-29.437 0.26-0.318 0.504-0.653 0.714-1.021 8.381-14.666 9.187-33.411 6.375-52.196 17.915,17.838 29.055,42.376 35.575,61.582 7.416,21.844 10.392,41.018 11.208,47.085-5.08,10.762-32.527,65.991-73.499,95.291z"/>
</svg>
