<?xml version='1.0' encoding='iso-8859-1'?>
<!DOCTYPE svg PUBLIC '-//W3C//DTD SVG 1.1//EN' 'http://www.w3.org/Graphics/SVG/1.1/DTD/svg11.dtd'>
<svg version="1.1" xmlns="http://www.w3.org/2000/svg" viewBox="0 0 479.948 479.948" xmlns:xlink="http://www.w3.org/1999/xlink" enable-background="new 0 0 479.948 479.948">
  <path d="m468.255,185.946c-9.859-11.099-23.661-17.937-33.739-22.93-2.299-1.139-4.992-2.474-6.756-3.471 0.018-2.025 0.209-5.025 0.372-7.585 0.715-11.224 1.694-26.596-2.987-40.684-6.045-18.187-20.115-29.072-40.69-31.477-46.808-5.488-68.658,65.268-80.4,103.271-0.782,2.532-1.603,5.184-2.381,7.629-7.685-6.149-16.298-11.181-25.6-14.839 1.719-1.885 3.591-3.906 5.381-5.836 27.041-29.172 77.374-83.471 49.235-121.266-12.371-16.616-28.832-23.359-47.604-19.5-14.541,2.988-27.364,11.522-36.727,17.753-2.136,1.421-4.639,3.087-6.384,4.115-1.745-1.028-4.248-2.694-6.383-4.115-9.363-6.231-22.186-14.765-36.728-17.754-18.773-3.86-35.234,2.884-47.604,19.5-28.138,37.794 22.195,92.094 49.236,121.265 1.79,1.931 3.663,3.952 5.381,5.837-9.301,3.658-17.916,8.69-25.6,14.839-0.778-2.445-1.598-5.096-2.38-7.628-11.744-38.001-33.596-108.753-80.402-103.27-20.575,2.405-34.645,13.289-40.69,31.476-4.682,14.087-3.703,29.459-2.988,40.683 0.163,2.56 0.354,5.561 0.372,7.586-1.763,0.997-4.457,2.332-6.755,3.471-10.078,4.993-23.88,11.832-33.739,22.93-12.728,14.328-15.119,31.956-6.915,50.977 9.472,21.96 32.729,28.539 58.414,28.537 24.92-0.001 52.125-6.195 71.224-10.544 2.565-0.584 5.249-1.195 7.74-1.74-0.727,4.826-1.106,9.764-1.106,14.789v10h88.922v173.784h20v-173.786h88.923v-10c0-5.025-0.38-9.963-1.107-14.789 2.491,0.546 5.176,1.156 7.741,1.74 19.101,4.35 46.302,10.545 71.224,10.545 25.682-0.001 48.941-6.58 58.413-28.538 8.205-19.019 5.814-36.646-6.913-50.975zm-244.657-17.966c-2.572-3.069-6.216-7-10.435-11.552-21.445-23.134-66.067-71.272-47.862-95.726 14.696-19.737 31.444-14.187 57.21,2.96 7.61,5.065 12.204,8.122 17.463,8.122 5.259,0 9.853-3.057 17.464-8.123 25.77-17.147 42.516-22.695 57.208-2.96 18.206,24.453-26.416,72.592-47.86,95.726-4.219,4.551-7.863,8.482-10.435,11.551-0.548,0.654-1.148,1.37-1.749,2.145-1.532-0.228-3.074-0.424-4.627-0.581v-49.477h-20v49.477c-1.553,0.156-3.095,0.353-4.626,0.58-0.602-0.772-1.203-1.489-1.751-2.142zm-78.4,64.173c-3.943,0.693-9.169,1.883-15.221,3.262-30.757,7.004-94.758,21.578-106.832-6.414-9.746-22.594 3.436-34.324 31.168-48.064 8.192-4.059 13.137-6.509 15.766-11.063 2.629-4.554 2.279-10.062 1.698-19.186-1.967-30.887 1.601-48.166 26.041-51.024 30.296-3.523 49.658,59.174 58.97,89.313 1.833,5.93 3.415,11.051 4.786,14.813 0.298,0.817 0.626,1.714 1.005,2.64-0.96,1.206-1.894,2.435-2.798,3.686l-42.888-24.761-10,17.32 42.857,24.742c-0.638,1.414-1.245,2.844-1.817,4.292-0.973,0.134-1.894,0.296-2.735,0.444zm16.484,25.81c4.929-38.814 38.161-68.922 78.292-68.922 40.132,0 73.363,30.108 78.292,68.922h-156.584zm295.121-28.962c-12.073,27.994-76.074,13.418-106.831,6.414-6.051-1.378-11.277-2.568-15.221-3.262-0.841-0.148-1.763-0.31-2.734-0.443-0.572-1.448-1.179-2.878-1.816-4.292l42.855-24.743-10-17.32-42.887,24.761c-0.905-1.251-1.838-2.481-2.799-3.687 0.379-0.926 0.707-1.823 1.005-2.64 1.371-3.762 2.954-8.883 4.786-14.814 9.311-30.137 28.689-92.854 58.97-89.311 24.441,2.857 28.008,20.137 26.041,51.025-0.581,9.122-0.932,14.629 1.697,19.185 2.63,4.554 7.574,7.004 15.767,11.063 27.733,13.741 40.914,25.47 31.167,48.064z"/>
</svg>
