<?xml version="1.0" encoding="iso-8859-1"?>
<!-- Generator: Adobe Illustrator 18.0.0, SVG Export Plug-In . SVG Version: 6.00 Build 0)  -->
<!DOCTYPE svg PUBLIC "-//W3C//DTD SVG 1.1//EN" "http://www.w3.org/Graphics/SVG/1.1/DTD/svg11.dtd">
<svg version="1.1" id="Capa_1" xmlns="http://www.w3.org/2000/svg" xmlns:xlink="http://www.w3.org/1999/xlink" x="0px" y="0px"
	 viewBox="0 0 413.188 413.188" style="enable-background:new 0 0 413.188 413.188;" xml:space="preserve">
<path d="M385.916,6.156C158.356,18.323,122.568,31.049,68.357,80.196c-21.156,19.179-33.206,46.021-33.929,75.582
	c-0.779,31.812,11.717,62.999,34.284,85.565c14.527,14.527,32.254,24.69,51.757,29.808l-116.002,116
	c-5.956,5.957-5.956,15.614,0,21.569c5.957,5.957,15.614,5.956,21.57,0L142.037,292.72c5.119,19.503,15.282,37.23,29.808,51.756
	c21.81,21.81,51.98,34.318,82.776,34.318c30.684,0,58.516-12.061,78.372-33.963c49.146-54.213,61.872-90.001,74.039-317.558
	c0.24-4.494,2.317-15.585,6.155-27.273C401.5,3.838,390.408,5.915,385.916,6.156z M343.415,91.344L205.781,228.976
	c-5.956,5.956-15.612,5.957-21.569,0c-5.956-5.956-5.957-15.613,0-21.569L321.844,69.774c5.957-5.956,15.614-5.956,21.569,0
	C349.371,75.731,349.371,85.387,343.415,91.344z"/>
<g>
</g>
<g>
</g>
<g>
</g>
<g>
</g>
<g>
</g>
<g>
</g>
<g>
</g>
<g>
</g>
<g>
</g>
<g>
</g>
<g>
</g>
<g>
</g>
<g>
</g>
<g>
</g>
<g>
</g>
</svg>
