<?xml version="1.0" encoding="iso-8859-1"?>
<!-- Generator: Adobe Illustrator 18.0.0, SVG Export Plug-In . SVG Version: 6.00 Build 0)  -->
<!DOCTYPE svg PUBLIC "-//W3C//DTD SVG 1.1//EN" "http://www.w3.org/Graphics/SVG/1.1/DTD/svg11.dtd">
<svg version="1.1" id="Capa_1" xmlns="http://www.w3.org/2000/svg" xmlns:xlink="http://www.w3.org/1999/xlink" x="0px" y="0px"
	 viewBox="0 0 411.18 411.18" style="enable-background:new 0 0 411.18 411.18;" xml:space="preserve">
<g>
	<g>
		<g>
			<path d="M205.59,112.539c-1.32,0-2.6-0.529-3.53-1.459c-0.94-0.932-1.47-2.221-1.47-3.531c0-1.32,0.53-2.609,1.47-3.539
				c0.92-0.93,2.21-1.471,3.53-1.471c1.32,0,2.61,0.541,3.54,1.471c0.93,0.93,1.46,2.219,1.46,3.539c0,1.31-0.53,2.6-1.47,3.531
				C208.2,112.01,206.91,112.539,205.59,112.539z"/>
		</g>
		<g>
			<path d="M297.83,140.01c-1.32,0-2.61-0.531-3.54-1.471c-0.93-0.93-1.47-2.209-1.47-3.529s0.54-2.602,1.47-3.541
				c0.93-0.93,2.22-1.459,3.54-1.459c1.31,0,2.6,0.529,3.53,1.459c0.93,0.939,1.47,2.221,1.47,3.541c0,1.309-0.54,2.6-1.47,3.529
				C300.43,139.479,299.14,140.01,297.83,140.01z"/>
		</g>
		<g>
			<path d="M272.2,67.6c-1.32,0-2.6-0.531-3.53-1.461c-0.93-0.939-1.47-2.219-1.47-3.539c0-1.32,0.54-2.611,1.47-3.541
				c0.93-0.93,2.21-1.459,3.53-1.459c1.32,0,2.61,0.529,3.54,1.459c0.93,0.93,1.46,2.221,1.46,3.541c0,1.32-0.53,2.6-1.46,3.539
				C274.81,67.069,273.52,67.6,272.2,67.6z"/>
		</g>
	</g>
	<g>
		<path d="M113.35,140.01c-1.31,0-2.6-0.531-3.53-1.471c-0.93-0.93-1.47-2.221-1.47-3.529c0-1.32,0.54-2.602,1.47-3.541
			c0.93-0.93,2.22-1.459,3.53-1.459c1.32,0,2.61,0.529,3.54,1.459c0.93,0.93,1.46,2.221,1.46,3.541s-0.53,2.609-1.46,3.529
			C115.96,139.479,114.67,140.01,113.35,140.01z"/>
	</g>
	<g>
		<path d="M138.98,67.6c-1.32,0-2.61-0.531-3.54-1.461c-0.93-0.939-1.46-2.231-1.46-3.539c0-1.32,0.53-2.6,1.46-3.541
			c0.93-0.93,2.22-1.459,3.54-1.459c1.31,0,2.6,0.529,3.53,1.459c0.93,0.93,1.47,2.221,1.47,3.541c0,1.32-0.54,2.6-1.47,3.539
			C141.58,67.069,140.29,67.6,138.98,67.6z"/>
	</g>
	<path d="M406.137,163.301c-0.585-0.087-8.545-1.222-20.59-1.459c1.257-0.942,2.529-1.949,3.801-3.039
		c14.61-12.514,22.157-28.975,21.821-47.605c-0.039-2.178-1.483-4.078-3.57-4.701c-1.769-0.527-38.829-11.215-70.754,6.377
		c-0.01-6.148-2.468-11.912-7.294-15.73c-4.557-3.605-9.829-5.158-15.245-4.484c-6.984,0.865-12.845,5.176-16.48,8.566
		c-1.778-1.659-4.092-3.535-6.806-5.123c0.795-1.438,1.49-2.96,2.037-4.539c8.62,1.197,17.065-2.178,21.746-9.105
		c5.523-8.178,5.358-20.379-6.382-30.539c4.941-9.75,3.313-21.01-4.493-27.184c-4.558-3.607-9.829-5.158-15.245-4.486
		c-6.984,0.866-12.845,5.177-16.48,8.566c-3.634-3.39-9.496-7.7-16.478-8.566c-5.415-0.664-10.688,0.881-15.246,4.484
		c-7.805,6.176-9.433,17.435-4.491,27.188c-4.619,3.995-7.707,8.524-9.1,13.285c-1.584-0.194-3.192-0.217-4.817-0.014
		c-6.983,0.866-12.845,5.178-16.479,8.568c-3.635-3.391-9.497-7.703-16.48-8.568c-1.627-0.201-3.237-0.179-4.822,0.016
		c-1.393-4.761-4.475-9.291-9.095-13.287c4.941-9.752,3.314-21.012-4.491-27.188c-4.558-3.605-9.828-5.15-15.246-4.484
		c-6.983,0.866-12.844,5.177-16.479,8.566c-3.635-3.39-9.496-7.7-16.48-8.566c-5.412-0.664-10.688,0.881-15.245,4.484
		c-7.806,6.176-9.434,17.435-4.493,27.185c-11.74,10.16-11.905,22.361-6.381,30.541c4.681,6.926,13.124,10.301,21.745,9.104
		c0.546,1.578,1.236,3.104,2.029,4.541c-2.714,1.588-5.02,3.465-6.797,5.122c-3.634-3.39-9.496-7.702-16.481-8.567
		c-5.416-0.672-10.688,0.879-15.244,4.484c-4.826,3.817-7.284,9.58-7.295,15.729c-31.925-17.591-68.986-6.904-70.754-6.375
		c-2.087,0.623-3.531,2.523-3.57,4.701c-0.334,18.631,7.211,35.092,21.822,47.605c1.281,1.097,2.557,2.093,3.822,3.04
		c-12.058,0.236-20.026,1.372-20.611,1.458c-1.37,0.201-2.594,0.961-3.383,2.1c-0.789,1.137-1.124,2.563-0.778,3.904
		c9.368,36.285,36.635,49.36,36.635,49.615c0,73.726,24.293,116.439,44.673,139.289c22.358,25.066,44.687,32.344,45.627,32.643
		c0.488,0.154,0.997,0.232,1.509,0.232h152.529c0.512,0,1.021-0.078,1.509-0.232c0.94-0.299,23.268-7.576,45.626-32.643
		c20.379-22.85,44.672-65.563,44.672-139.289c0-0.254,36.635-13.33,36.635-49.615c0-1.385,0.01-2.768-0.778-3.904
		C408.731,164.262,407.506,163.502,406.137,163.301z M401.11,115.201c-1.655,32.65-31.988,45.441-36.714,47.238
		c-4.651,0.357-9.52,0.886-14.525,1.645c-14.95,2.267-28.371,6.193-40.116,11.67c3.985-2.773,7.157-6.877,8.914-11.783
		c8.623,1.197,17.075-2.174,21.757-9.105c5.298-7.844,5.355-19.391-5.015-29.288C359.567,108.338,390.631,112.953,401.11,115.201z
		 M293.861,111.567l0.015-0.012c0.26,0.339,0.55,0.66,0.905,0.932c2.189,1.682,5.329,1.269,7.011-0.92
		c1.604-2.088,7.57-8.219,13.745-8.984c2.775-0.344,5.331,0.441,7.81,2.404c4.589,3.629,4.626,11.496,0.082,17.535
		c-0.819,1.088-1.158,2.463-0.94,3.807c0.218,1.344,0.975,2.541,2.096,3.314c8.755,6.043,11.65,13.563,7.556,19.625
		c-3.072,4.547-9.401,6.178-15.393,3.963c-1.429-0.529-3.017-0.379-4.318,0.408c-1.303,0.787-2.176,2.123-2.373,3.633
		c-0.919,7.02-6.176,12.314-12.229,12.314c-6.052,0-11.309-5.295-12.229-12.316c-0.198-1.508-1.071-2.844-2.373-3.631
		c-1.302-0.785-2.892-0.938-4.318-0.408c-5.991,2.215-12.319,0.584-15.391-3.961c-4.095-6.064-1.2-13.584,7.556-19.627
		c1.121-0.773,1.877-1.971,2.096-3.314c0.218-1.344-0.122-2.719-0.94-3.807c-4.544-6.039-4.509-13.906,0.08-17.535
		c2.48-1.963,5.034-2.746,7.812-2.404C286.291,103.348,292.257,109.479,293.861,111.567z M362.324,247.463H48.857
		c-0.721-7.434-1.172-15.273-1.301-23.543h312.428c0.008,0,0.016,0.002,0.024,0.002s0.017-0.002,0.026-0.002h3.59
		C363.496,232.19,363.045,240.029,362.324,247.463z M149.57,124.328c3.487-6.881,3.688-14.505,0.77-20.571
		c2.502-1.627,4.678-3.782,6.431-6.304c1.553,3.238,3.029,6.62,4.447,10.166c-3.042,7.185-1.884,14.366,1.775,19.783
		c1.763,2.609,4.06,4.713,6.698,6.26c8.893,34.107,10.214,67.932,10.381,80.258h-10.26c-0.127-4.652-0.778-11.853-3.153-19.908
		c-3.762-12.761-10.637-23.428-20.153-31.527c3.795-1.559,7.096-4.14,9.447-7.619C161.475,146.688,161.309,134.487,149.57,124.328z
		 M165.108,91.705c0.747-0.061,1.491-0.145,2.225-0.273c0.466,1.833,1.142,3.656,2.04,5.43c-0.456,0.396-0.89,0.795-1.312,1.196
		C167.105,95.887,166.123,93.77,165.108,91.705z M159.829,213.92h-15.408c-8.543-14.802-21.155-26.685-37.347-35.346
		c2.003,0.65,4.11,1.012,6.28,1.012c8.822,0,16.66-5.758,20.266-14.172C156.409,179.692,159.557,203.858,159.829,213.92z
		 M180.77,136.725c1.313,0.029,2.642-0.034,3.977-0.221c2.688,7.506,8.667,13.16,15.842,14.985v62.431h-10.502
		C189.961,201.873,188.802,170.315,180.77,136.725z M210.59,213.92v-62.43c7.175-1.826,13.154-7.48,15.843-14.986
		c1.336,0.188,2.667,0.25,3.981,0.221c-8.031,33.584-9.195,65.148-9.322,77.195H210.59z M248.189,127.401
		c3.66-5.42,4.817-12.607,1.767-19.796c1.409-3.516,2.896-6.906,4.454-10.155c1.754,2.518,3.932,4.672,6.434,6.301
		c-2.921,6.067-2.721,13.694,0.767,20.578c-11.74,10.158-11.905,22.359-6.382,30.539c2.346,3.473,5.64,6.052,9.427,7.61
		c-9.51,8.101-16.372,18.776-20.133,31.534c-2.378,8.064-3.025,15.256-3.151,19.908h-10.264
		c0.163-12.314,1.476-46.108,10.381-80.259C244.128,132.115,246.426,130.01,248.189,127.401z M241.807,96.862
		c0.898-1.773,1.574-3.596,2.04-5.43c0.744,0.132,1.498,0.215,2.256,0.275c-1.017,2.071-2.009,4.189-2.968,6.366
		C242.707,97.666,242.269,97.262,241.807,96.862z M251.345,213.92c0.257-10.076,3.385-34.276,26.198-48.551
		c3.598,8.439,11.447,14.217,20.284,14.217c2.173,0,4.282-0.361,6.288-1.014c-16.196,8.662-28.817,20.541-37.361,35.348H251.345z
		 M245.447,57.235c1.121-0.773,1.878-1.971,2.096-3.314c0.218-1.344-0.122-2.719-0.94-3.809c-4.544-6.039-4.509-13.904,0.08-17.535
		c2.48-1.961,5.033-2.746,7.812-2.404c6.173,0.766,14.309,9.633,14.663,9.906c2.19,1.68,5.329,1.267,7.011-0.92
		c1.604-2.088,7.57-8.221,13.745-8.986c2.778-0.34,5.331,0.443,7.81,2.404c4.589,3.631,4.626,11.498,0.082,17.535
		c-0.819,1.09-1.158,2.465-0.94,3.809c0.218,1.344,0.975,2.541,2.096,3.314c8.755,6.041,11.65,13.562,7.556,19.625
		c-3.073,4.549-9.403,6.178-15.393,3.963c-1.428-0.529-3.016-0.377-4.318,0.408c-1.302,0.787-2.176,2.123-2.373,3.631
		c-0.355,2.711-1.491,5.6-3.001,7.809c-0.028-0.003-0.055-0.009-0.083-0.012c-4.853-0.597-9.587,0.597-13.8,3.441
		c-3.967-1.904-6.909-6.159-7.574-11.238c-0.198-1.508-1.071-2.844-2.373-3.631c-1.302-0.785-2.893-0.936-4.318-0.408
		c-3.059,1.131-6.249,1.264-9.076,0.444c-0.87-4.54-3.169-8.646-6.89-11.589c-0.346-0.274-0.704-0.514-1.058-0.764
		C237.095,64.875,240.269,60.807,245.447,57.235z M179.989,95.055c-4.544-6.037-4.507-13.904,0.083-17.535
		c2.479-1.963,5.029-2.752,7.809-2.404c6.173,0.766,12.141,6.898,13.745,8.986c1.681,2.191,4.821,2.602,7.011,0.92
		c0.355-0.271,0.645-0.593,0.905-0.932l0.015,0.012c1.604-2.088,7.571-8.221,13.744-8.986c2.781-0.346,5.333,0.443,7.811,2.404
		c4.588,3.631,4.624,11.498,0.08,17.535c-0.819,1.09-1.158,2.465-0.941,3.809c0.218,1.344,0.975,2.541,2.096,3.314
		c8.755,6.041,11.65,13.563,7.557,19.625c-1.098,1.625-2.617,2.869-4.383,3.707c-0.155,0.057-0.301,0.133-0.449,0.203
		c-3.098,1.316-6.891,1.408-10.56,0.053c-1.426-0.529-3.016-0.379-4.318,0.408c-1.302,0.787-2.176,2.123-2.373,3.631
		c-0.92,7.021-6.177,12.316-12.229,12.316c-6.053,0-11.31-5.295-12.229-12.314c-0.197-1.51-1.07-2.846-2.373-3.633
		c-1.302-0.785-2.892-0.936-4.318-0.408c-3.657,1.351-7.438,1.264-10.53-0.039c-0.172-0.084-0.342-0.174-0.523-0.238
		c-1.747-0.836-3.25-2.072-4.338-3.684c-4.095-6.064-1.201-13.586,7.555-19.627c1.121-0.773,1.877-1.971,2.096-3.314
		C181.147,97.52,180.808,96.145,179.989,95.055z M120.057,80.823c-5.991,2.215-12.32,0.586-15.393-3.961
		c-4.095-6.065-1.2-13.586,7.555-19.627c1.121-0.773,1.877-1.971,2.096-3.314c0.218-1.346-0.122-2.719-0.94-3.809
		c-4.544-6.037-4.507-13.904,0.082-17.535c2.479-1.961,5.037-2.746,7.811-2.404c6.174,0.766,14.31,9.633,14.665,9.906
		c2.19,1.68,5.329,1.267,7.011-0.92c1.604-2.088,7.57-8.221,13.743-8.986c2.779-0.34,5.333,0.443,7.812,2.404
		c4.589,3.631,4.624,11.496,0.08,17.535c-0.819,1.09-1.158,2.465-0.94,3.809c0.218,1.344,0.975,2.541,2.096,3.314
		c5.178,3.572,8.353,7.643,9.188,11.682c-0.354,0.25-0.71,0.488-1.056,0.762c-3.721,2.943-6.02,7.049-6.891,11.589
		c-2.827,0.819-6.017,0.687-9.077-0.444c-1.427-0.529-3.016-0.379-4.318,0.408c-1.302,0.787-2.175,2.123-2.373,3.631
		c-0.665,5.079-3.607,9.334-7.574,11.238c-4.213-2.848-8.947-4.045-13.8-3.441c-0.028,0.003-0.055,0.008-0.083,0.012
		c-1.51-2.21-2.646-5.098-3.001-7.809c-0.197-1.508-1.071-2.844-2.373-3.631C123.074,80.446,121.484,80.295,120.057,80.823z
		 M86.596,129.643c1.121-0.773,1.877-1.971,2.096-3.314c0.218-1.344-0.122-2.719-0.94-3.807c-4.544-6.039-4.507-13.906,0.083-17.537
		c2.479-1.961,5.034-2.748,7.81-2.402c6.174,0.766,12.141,6.896,13.745,8.984l0.015-0.012c0.26,0.339,0.55,0.66,0.905,0.932
		c2.189,1.682,5.329,1.269,7.011-0.92c1.604-2.088,7.57-8.219,13.743-8.984c2.78-0.342,5.332,0.443,7.812,2.404
		c4.589,3.629,4.625,11.496,0.08,17.535c-0.819,1.088-1.158,2.463-0.941,3.807c0.218,1.344,0.975,2.541,2.096,3.314
		c8.755,6.043,11.65,13.563,7.557,19.625c-3.073,4.549-9.402,6.176-15.392,3.963c-1.427-0.529-3.017-0.379-4.318,0.408
		c-1.302,0.787-2.176,2.123-2.373,3.631c-0.92,7.021-6.177,12.316-12.229,12.316c-6.053,0-11.31-5.295-12.229-12.314
		c-0.197-1.51-1.07-2.846-2.373-3.633c-1.301-0.785-2.891-0.938-4.318-0.408c-5.992,2.215-12.321,0.584-15.393-3.961
		C74.946,143.205,77.841,135.686,86.596,129.643z M10.069,115.194c10.468-2.265,41.474-6.9,65.686,10.397
		c-10.356,9.894-10.297,21.435-5,29.277c4.682,6.928,13.128,10.307,21.756,9.102c1.756,4.902,4.923,9.004,8.902,11.776
		c-11.741-5.473-25.16-9.396-40.104-11.661c-5.005-0.758-9.874-1.286-14.525-1.645C42.054,160.642,11.717,147.851,10.069,115.194z
		 M12.07,172.598c20.143-1.746,89.539-4.131,120.551,41.322H51.998C44.633,212.377,23.263,200.87,12.07,172.598z M321.954,351.073
		c-18.488,20.932-37.224,28.629-40.953,30.012h-150.82c-3.73-1.383-22.466-9.08-40.954-30.012
		c-15.23-17.242-32.793-46.591-39.2-93.609h311.126C354.746,304.482,337.184,333.83,321.954,351.073z M359.186,213.92h-80.64
		c14.472-21.334,38.837-34.748,72.58-39.912c20.502-3.135,39.07-2.203,47.986-1.416C395.932,201.175,363.87,212.257,359.186,213.92z
		"/>
</g>
<g>
</g>
<g>
</g>
<g>
</g>
<g>
</g>
<g>
</g>
<g>
</g>
<g>
</g>
<g>
</g>
<g>
</g>
<g>
</g>
<g>
</g>
<g>
</g>
<g>
</g>
<g>
</g>
<g>
</g>
</svg>
